<svg width="24" height="24" viewBox="0 0 24 24" fill="none" xmlns="http://www.w3.org/2000/svg">
<path d="M15.9999 2.97949C17.2102 3.11364 18.3404 3.66448 19.1932 4.54297C21.194 6.60449 21.1697 9.89038 19.1385 11.9219L18.8417 12.2197L15.4042 15.6562L11.5633 19.4971C9.59699 21.4632 6.40547 21.4526 4.452 19.4736C2.51168 17.5073 2.52831 14.3415 4.48911 12.3955L10.1209 6.80664C11.245 5.69146 13.0598 5.695 14.1795 6.81445C15.3024 7.93726 15.3022 9.75792 14.1795 10.8809L8.27232 16.7881L7.21177 15.7275L13.119 9.82031C13.6559 9.28317 13.6561 8.41202 13.119 7.875C12.5833 7.33967 11.7152 7.33862 11.1776 7.87207L5.54575 13.46C4.17159 14.8236 4.16051 17.0421 5.52036 18.4199C6.88919 19.8065 9.12494 19.8141 10.5028 18.4365L14.3436 14.5957L17.7801 11.1582L18.078 10.8613C19.5295 9.40944 19.5469 7.0612 18.117 5.58789C17.5465 5.00013 16.8022 4.61821 15.9999 4.49316V2.97949Z" fill="#0C42A8"/>
</svg>
