<svg width="25" height="24" viewBox="0 0 25 24" fill="none" xmlns="http://www.w3.org/2000/svg">
<path fill-rule="evenodd" clip-rule="evenodd" d="M16.8518 17.1624C15.467 18.3101 13.6891 19 11.75 19C7.33172 19 3.75 15.4183 3.75 11C3.75 6.58172 7.33172 3 11.75 3C16.1683 3 19.75 6.58172 19.75 11C19.75 12.9391 19.0601 14.717 17.9124 16.1018L22.2803 20.4697C22.5732 20.7626 22.5732 21.2374 22.2803 21.5303C21.9874 21.8232 21.5126 21.8232 21.2197 21.5303L16.8518 17.1624ZM18.25 11C18.25 14.5899 15.3399 17.5 11.75 17.5C8.16015 17.5 5.25 14.5899 5.25 11C5.25 7.41015 8.16015 4.5 11.75 4.5C15.3399 4.5 18.25 7.41015 18.25 11Z" fill="#0C42A8"/>
</svg>
